<svg xmlns="http://www.w3.org/2000/svg" viewBox="-212.67 -80.4 635.73 186.8" width="640" height="210" style="color:#020617;max-width: 100%;height: auto;"><title>retikz IR-centered architecture</title><desc>Sugar JSX, Kernel JSX, future text DSLs, and AI output converge into JSON IR before Scene rendering.</desc><defs><marker id="retikz-arrow-r0-dc39d5da" viewBox="0 0 10 10" refX="3" refY="5" markerWidth="6" markerHeight="6" orient="auto-start-reverse" markerUnits="strokeWidth" preserveAspectRatio="none" overflow="visible"><path d="M 0 0 L 10 5 L 0 10 L 3 5 Z" fill="context-stroke"></path></marker></defs><g><rect x="-200.38" y="-70.4" width="80.76" height="32.8" fill="transparent" stroke="none" stroke-width="1"></rect><text x="-160" y="-54" font-size="14" text-anchor="middle" dominant-baseline="central" fill="currentColor"><tspan x="-160" dy="0">Sugar JSX</tspan></text></g><g><rect x="-202.67" y="-34.4" width="85.35" height="32.8" fill="transparent" stroke="none" stroke-width="1"></rect><text x="-160" y="-18" font-size="14" text-anchor="middle" dominant-baseline="central" fill="currentColor"><tspan x="-160" dy="0">Kernel JSX</tspan></text></g><g><rect x="-197.8" y="1.6" width="75.61" height="32.8" fill="transparent" stroke="none" stroke-width="1"></rect><text x="-160" y="18" font-size="14" text-anchor="middle" dominant-baseline="central" fill="gray"><tspan x="-160" dy="0">Text DSL*</tspan></text></g><g><rect x="-193.47" y="37.6" width="66.95" height="32.8" fill="transparent" stroke="none" stroke-width="1"></rect><text x="-160" y="54" font-size="14" text-anchor="middle" dominant-baseline="central" fill="currentColor"><tspan x="-160" dy="0">AI / LLM</tspan></text></g><g><rect x="-78.79" y="-16.4" width="77.58" height="32.8" fill="transparent" stroke="none" stroke-width="1"></rect><text x="-40" y="0" font-size="14" text-anchor="middle" dominant-baseline="central" fill="currentColor"><tspan x="-40" dy="0">IR (JSON)</tspan></text></g><g><rect x="32.42" y="-16.4" width="55.16" height="32.8" fill="transparent" stroke="none" stroke-width="1"></rect><text x="60" y="0" font-size="14" text-anchor="middle" dominant-baseline="central" fill="currentColor"><tspan x="60" dy="0">Scene</tspan></text></g><g><rect x="153.92" y="-70.4" width="92.17" height="32.8" fill="transparent" stroke="none" stroke-width="1"></rect><text x="200" y="-54" font-size="14" text-anchor="middle" dominant-baseline="central" fill="currentColor"><tspan x="200" dy="0">React + SVG</tspan></text></g><g><rect x="142.26" y="-34.4" width="115.48" height="32.8" fill="transparent" stroke="none" stroke-width="1"></rect><text x="200" y="-18" font-size="14" text-anchor="middle" dominant-baseline="central" fill="gray"><tspan x="200" dy="0">pure SVG string</tspan></text></g><g><rect x="168.63" y="1.6" width="62.73" height="32.8" fill="transparent" stroke="none" stroke-width="1"></rect><text x="200" y="18" font-size="14" text-anchor="middle" dominant-baseline="central" fill="gray"><tspan x="200" dy="0">Canvas</tspan></text></g><g><rect x="286.94" y="1.6" width="126.12" height="32.8" fill="transparent" stroke="none" stroke-width="1"></rect><text x="350" y="18" font-size="14" text-anchor="middle" dominant-baseline="central" fill="gray"><tspan x="350" dy="0">PNG/JPEG/WebP</tspan></text></g><g><rect x="119.64" y="37.6" width="160.72" height="32.8" fill="transparent" stroke="none" stroke-width="1"></rect><text x="200" y="54" font-size="14" text-anchor="middle" dominant-baseline="central" fill="gray"><tspan x="200" dy="0">Native (Skia/RN) / PDF</tspan></text></g><g><rect x="-103.77" y="63.6" width="127.54" height="32.8" fill="transparent" stroke="none" stroke-width="1"></rect><text x="-40" y="80" font-size="14" text-anchor="middle" dominant-baseline="central" fill="currentColor"><tspan x="-40" dy="0">persistence / edit</tspan></text></g><path d="M -123.56 -37.6 L -80.27 -18.12" fill="none" stroke="currentColor" stroke-width="1" marker-end="url(#retikz-arrow-r0-dc39d5da)"></path><path d="M -117.33 -11.6 L -82.94 -6.44" fill="none" stroke="currentColor" stroke-width="1" marker-end="url(#retikz-arrow-r0-dc39d5da)"></path><path d="M -122.2 12.33 L -82.94 6.44" fill="none" stroke="gray" stroke-width="1" marker-end="url(#retikz-arrow-r0-dc39d5da)"></path><path d="M -126.53 38.94 L -80.27 18.12" fill="none" stroke="currentColor" stroke-width="1" marker-end="url(#retikz-arrow-r0-dc39d5da)"></path><path d="M -1.21 0 L 28.22 0" fill="none" stroke="currentColor" stroke-width="1" marker-end="url(#retikz-arrow-r0-dc39d5da)"></path><path d="M 87.58 -10.64 L 153.56 -36.09" fill="none" stroke="currentColor" stroke-width="1" marker-end="url(#retikz-arrow-r0-dc39d5da)"></path><path d="M 87.58 -3.55 L 138.09 -10.04" fill="none" stroke="gray" stroke-width="1" marker-end="url(#retikz-arrow-r0-dc39d5da)"></path><path d="M 87.58 3.55 L 164.46 13.43" fill="none" stroke="gray" stroke-width="1" marker-end="url(#retikz-arrow-r0-dc39d5da)"></path><path d="M 231.37 18 L 282.74 18" fill="none" stroke="gray" stroke-width="1" marker-end="url(#retikz-arrow-r0-dc39d5da)"></path><path d="M 87.58 10.64 L 153.56 36.09" fill="none" stroke="gray" stroke-width="1" marker-end="url(#retikz-arrow-r0-dc39d5da)"></path><path d="M -40 20.6 L -40 59.4" fill="none" stroke="currentColor" stroke-width="1" marker-start="url(#retikz-arrow-r0-dc39d5da)" marker-end="url(#retikz-arrow-r0-dc39d5da)"></path></svg>
