<svg style="color:#020617;" xmlns="http://www.w3.org/2000/svg" viewBox="0 0 1280 760" width="600" height="300"><title>Ohm's law circuit example</title><desc>A circuit diagram built from reusable circuit symbols, custom shapes, scopes, meters, resistors, wires, and labels.</desc><path d="M 749 440 L 749 560 L 751.06 560" fill="none" stroke="currentColor" stroke-width="3" stroke-linecap="round" stroke-linejoin="round"></path><path d="M 931 440 L 931 560 L 928.94 560" fill="none" stroke="currentColor" stroke-width="3" stroke-linecap="round" stroke-linejoin="round"></path><g><g><path d="M 272 200 L 322 200" stroke="currentColor" stroke-width="3" stroke-linecap="round"></path><path d="M 378 200 L 428 200" stroke="currentColor" stroke-width="3" stroke-linecap="round"></path><ellipse cx="328" cy="200" rx="6" ry="6" fill="none" stroke="currentColor" stroke-width="3"></ellipse><ellipse cx="372" cy="200" rx="6" ry="6" fill="none" stroke="currentColor" stroke-width="3"></ellipse><path d="M 334 198 L 372 176.6" stroke="currentColor" stroke-width="3" stroke-linecap="round"></path></g><text x="350" y="162" font-size="28" font-family="Arial, sans-serif" font-style="italic" text-anchor="middle" dominant-baseline="central" fill="currentColor"><tspan x="350" dy="0">S</tspan></text><g><path d="M 536.06 200 L 591.06 200" stroke="currentColor" stroke-width="3" stroke-linecap="round"></path><path d="M 658.94 200 L 713.94 200" stroke="currentColor" stroke-width="3" stroke-linecap="round"></path><ellipse cx="625" cy="200" rx="33.94" ry="33.94" fill="none" stroke="currentColor" stroke-width="3"></ellipse><text x="625" y="200" font-size="32" font-family="Arial, sans-serif" text-anchor="middle" dominant-baseline="central" fill="currentColor"><tspan x="625" dy="0">A</tspan></text></g><g transform="rotate(90 160 320)"><g><path d="M 101 320 L 152 320" stroke="currentColor" stroke-width="3" stroke-linecap="round"></path><path d="M 152 299.6 L 152 340.4" stroke="currentColor" stroke-width="3" stroke-linecap="round"></path><path d="M 168 275.2 L 168 364.8" stroke="currentColor" stroke-width="3" stroke-linecap="round"></path><path d="M 168 320 L 219 320" stroke="currentColor" stroke-width="3" stroke-linecap="round"></path></g></g><g><path d="M 369 440 L 408 440" stroke="currentColor" stroke-width="3" stroke-linecap="round"></path><rect x="408" y="424" width="104" height="32" fill="none" stroke="currentColor" stroke-width="3"></rect><path d="M 512 440 L 551 440" stroke="currentColor" stroke-width="3" stroke-linecap="round"></path><path d="M 418 477.5 L 502 402.5" stroke="currentColor" stroke-width="3" stroke-linecap="round"></path><path d="M 486 406.5 L 502 402.5 L 497 418.5" stroke="currentColor" stroke-width="3" stroke-linecap="round" stroke-linejoin="round"></path></g><text x="460" y="386" font-size="28" font-family="Arial, sans-serif" font-style="normal" text-anchor="middle" dominant-baseline="central" fill="currentColor"><tspan x="460" dy="0">Rheostat</tspan></text><g><g><path d="M 809 200 L 848 200" stroke="currentColor" stroke-width="3" stroke-linecap="round"></path><rect x="848" y="184" width="104" height="32" fill="none" stroke="currentColor" stroke-width="3"></rect><path d="M 952 200 L 991 200" stroke="currentColor" stroke-width="3" stroke-linecap="round"></path></g><text x="900" y="164" font-size="28" font-family="Arial, sans-serif" font-style="italic" text-anchor="middle" dominant-baseline="central" fill="currentColor"><tspan x="900" dy="0">R1</tspan></text><g><path d="M 811.06 320 L 866.06 320" stroke="currentColor" stroke-width="3" stroke-linecap="round"></path><path d="M 933.94 320 L 988.94 320" stroke="currentColor" stroke-width="3" stroke-linecap="round"></path><ellipse cx="900" cy="320" rx="33.94" ry="33.94" fill="none" stroke="currentColor" stroke-width="3"></ellipse><text x="900" y="320" font-size="32" font-family="Arial, sans-serif" text-anchor="middle" dominant-baseline="central" fill="currentColor"><tspan x="900" dy="0">V</tspan></text><text x="900" y="266.06" font-size="28" font-family="Arial, sans-serif" font-style="italic" text-anchor="middle" dominant-baseline="central" fill="currentColor"><tspan x="900" dy="0">U1</tspan></text></g><path d="M 809 200 L 809 320 L 811.06 320" fill="none" stroke="currentColor" stroke-width="3" stroke-linecap="round" stroke-linejoin="round"></path><path d="M 991 200 L 991 320 L 988.94 320" fill="none" stroke="currentColor" stroke-width="3" stroke-linecap="round" stroke-linejoin="round"></path></g><g transform="translate(-60 240)"><g><path d="M 809 200 L 848 200" stroke="currentColor" stroke-width="3" stroke-linecap="round"></path><rect x="848" y="184" width="104" height="32" fill="none" stroke="currentColor" stroke-width="3"></rect><path d="M 952 200 L 991 200" stroke="currentColor" stroke-width="3" stroke-linecap="round"></path></g><text x="900" y="164" font-size="28" font-family="Arial, sans-serif" font-style="italic" text-anchor="middle" dominant-baseline="central" fill="currentColor"><tspan x="900" dy="0">R2</tspan></text><g><path d="M 811.06 320 L 866.06 320" stroke="currentColor" stroke-width="3" stroke-linecap="round"></path><path d="M 933.94 320 L 988.94 320" stroke="currentColor" stroke-width="3" stroke-linecap="round"></path><ellipse cx="900" cy="320" rx="33.94" ry="33.94" fill="none" stroke="currentColor" stroke-width="3"></ellipse><text x="900" y="320" font-size="32" font-family="Arial, sans-serif" text-anchor="middle" dominant-baseline="central" fill="currentColor"><tspan x="900" dy="0">V</tspan></text><text x="900" y="266.06" font-size="28" font-family="Arial, sans-serif" font-style="italic" text-anchor="middle" dominant-baseline="central" fill="currentColor"><tspan x="900" dy="0">U2</tspan></text></g></g><path d="M 160 261 L 160 200 L 272 200" fill="none" stroke="currentColor" stroke-width="3" stroke-linecap="round" stroke-linejoin="round"></path><path d="M 428 200 L 536.06 200" fill="none" stroke="currentColor" stroke-width="3" stroke-linecap="round" stroke-linejoin="round"></path><path d="M 713.94 200 L 809 200" fill="none" stroke="currentColor" stroke-width="3" stroke-linecap="round" stroke-linejoin="round"></path><path d="M 991 200 L 1040 200 L 1040 440 L 931 440" fill="none" stroke="currentColor" stroke-width="3" stroke-linecap="round" stroke-linejoin="round"></path><path d="M 749 440 L 551 440" fill="none" stroke="currentColor" stroke-width="3" stroke-linecap="round" stroke-linejoin="round"></path><path d="M 369 440 L 160 440 L 160 379" fill="none" stroke="currentColor" stroke-width="3" stroke-linecap="round" stroke-linejoin="round"></path><g><rect x="78.66" y="303.2" width="18.68" height="33.6" fill="transparent" stroke="none" stroke-width="1"></rect><text x="88" y="320" font-size="28" font-family="Arial, sans-serif" font-style="italic" text-anchor="middle" dominant-baseline="central" fill="currentColor"><tspan x="88" dy="0">E</tspan></text></g></g></svg>
